<svg id="WMF_objects" data-name="WMF objects" xmlns="http://www.w3.org/2000/svg" viewBox="0 0 308.05 114.75"><defs><style>.cls-1,.cls-2{fill:#fff;}.cls-1{fill-rule:evenodd;}</style></defs><title>sektafood-logo</title><path class="cls-1" d="M1179.24-289.08l-1.13-1.7-1.14-1.59-1.25-1.7-1.36-1.7-1.36-1.59-1.47-1.59-1.59-1.47-1.59-1.47-1.47-1.13-1.47-1-1.48-1-1.58-1-1.59-.91-1.7-.79-1.7-.68-1.7-.57-.91-.34-.91-.23-2-.57-2-.57-2.27-.45-2.38-.45-1.25-.11-1.24-.11h-1.25l-1.25-.11h-1.25l-1.36.11-1.24.11-1.25.23-1.25.23-1.24.23-1.25.34-1.36.45-1.25.45-1.25.57-1.24.68-1.37.68-1.24.79-1.25.91-1.25,1-1.24,1-1.14,1.25-1.25,1.25.8.45.79.57.68.57.68.79h0l.57.68.45.68.46.79.45.68.34.79.34.68.23.79.22.79.23.79.11.79.12,1.47v1.59l-.12,1.59-.34,1.47-.34,1.47-.56,1.47-.57,1.36-.68,1.47-.79,1.36-.91,1.47-.91,1.36-1,1.36-1,1.25-1.13,1.36-1.14,1.25-1.24,1.13L1112-268.1l-1.25,1.13-1.36,1-1.24,1-1.25,1-1.25.91-1.36.91-1.25.79-1.24.68-1.25.68-1.13.68-1.14.45-1.13.45-1.14.45-1,.34-.9.11-.91.23h-.79l-.68-.11h-.46l-.34-.23-.45-.11-.34-.23-.34-.34-.45-.23-.69-.79-.68-.91-.68-1-.68-1.13-.56-1.36-.57-1.36-.45-1.59-.57-1.59-.34-1.7-.34-1.7-.34-1.93-.23-1.81-.22-1.93-.12-1.7v-3.52l.12-1.81.11-1.81.11-1.7.34-1.7.23-1.7.45-1.7.46-1.59.56-1.59.68-1.47.68-1.47.91-1.25.91-1.25,1-1.13.79-.79.91-.79.91-.68,1-.57,1-.45,1.13-.45,1.13-.34,1.25-.23,1.36-.11h2.72l1.48.23,1.59.23,1.58.45,1.7.45,1.7.68.12-.11,1.7-1.81,1.81-1.59,1.93-1.59,1.93-1.59,2.15-1.36,2.16-1.36,2.15-1.13,2.38-1.13,2.38-1,2.38-.91,2.5-.79,2.49-.68,2.5-.57,2.61-.45,2.6-.45,2.61-.23,2.61-.11,2.61-.11,2.6.11,2.61.23,2.61.23,2.61.45,2.49.57,2.61.57,2.38.79,2.5.91,2.38,1,2.38,1.13,2.15,1.25,2.27,1.36,2,1.59,2,1.59h0l.23.11.11.23.23.11.23.23,1.24,1.25,1.25,1.25,1,1.25.91,1.36.91,1.25.68,1.36.68,1.25.45,1.36.45,1.25.46,1.25.22,1.25.23,1.25v1.13l.11,1.13-.11,1.13-.11,1-.12.79-.11.68-.23.79-.22.68-.34.57-.34.57-.34.57-.34.57-.46.45-.56.45-.46.34-.56.34-.57.23-.57.11-.68.11h-1.13l-.46-.11-.56-.11-.46-.11-.56-.23-.46-.34-.56-.34-.57-.34-.57-.34-.45-.57-.57-.45-.57-.57-.56-.68-.46-.68-.56-.79Zm0,0-63.72-18.71,1.58-1.25,1.71-1.25,1.7-1.13,1.81-1.13,1.93-1,1.93-.91,2-.91,2-.79,2.15-.68,2.16-.68,2.26-.57,2.27-.45,2.27-.34,2.27-.34,2.38-.23,2.27-.11,2.38-.11,2.38.11,2.38.11,2.27.23,2.38.34,2.27.34,2.26.57,2.27.57,2.27.68,2.15.91,2.16.91,2,1,2,1.13,2,1.25,1.81,1.25,1.82,1.47,1.13,1,1.14,1,.9,1,.91,1,.79,1,.8,1,.56,1,.69,1,.45,1,.45.91.46,1,.22.91.34.91.12.91.11.79.11.79v-1.7l-.11-.91-.23-.91-.22-1-.34-1-.46-1-.45-1.13-.57-1.13-.68-1.13-.79-1.13-.91-1.13-.91-1.13-1-1.13-1.24-1.13-1.25-1.13-1.82-1.47-2-1.47-2-1.25-2.15-1.13-2.16-1.13-2.26-.91-2.27-.79-2.38-.68-2.38-.57-2.38-.57-2.39-.34-2.49-.34-2.5-.11-2.38-.11h-2.49l-2.5.11-2.38.23-2.49.34-2.38.45-2.38.45-2.27.57-2.27.68-2.27.68-2.15.91-2.15.91-2,1-1.92,1-1.82,1.13-1.81,1.25-1.7,1.36-1.59,1.36-1.47,1.36-.23.34-.23.23-.11.11v.11h.11l.23-.11.45-.23.46-.23.68-.34Zm0,0-30.73,26.31v-2.15l.11-1.93.23-1.93.34-1.81.34-1.7.45-1.59.46-1.47.56-1.36.57-1.25.68-1.25.68-1,.8-1,.79-.91.79-.91.8-.68.9-.68.91-.57,1-.45.91-.34.91-.34,1-.23,1-.11.9-.11h1l.91.11.91.11,1,.23.91.34.79.34.91.45.79.57.79.57-.79-.68-.79-.57-.8-.57-.9-.34-.8-.45-.91-.34-1-.23-.9-.11-1-.11h-1l-.91.11-1,.23-1,.23-.91.34-1,.45-.91.45-.68.45-.68.45-.68.45-.56.57-.68.68-.57.68-.57.68-.57.79-.45.68-.45.79-.46.79-.34.91-.45.91-.34,1-.34,1-.23,1-.34,1.13-.22,1.13-.12,1.13-.22,1.25-.12,1.25-.11,1.36v2.84h0v1.47l.11.91.12,1,.22,1.13.12,1.13.56,2.27.34,1.13.34,1.13.34,1,.46,1,.45.79.57.79.56.68.57.57-.45-.68-.57-.68-.34-.91-.45-.91-.34-.91-.34-1-.57-2.15-.45-2-.12-1-.22-1-.12-.91v-.79l-.11-.79Z" transform="translate(-1082.86 322.08)"/><path class="cls-1" d="M1142.39-303.59v-.57l.11-.23v-.23l.12-.23.11-.11.23-.11.22-.11.23-.11h.68l2.38,1,2.16,1,1,.68,1.13.57.91.68,1,.68.9.79.91.68.91.79.91.79.79.91.79.91.68.79.68,1,.68.91.57.91.57.91.45,1,.46,1,.45,1,.45,1,.34,1.13.34,1,.23,1.13.23,1.13.22,1.13.12,1.25.11,1.25.11,1.13v1.25l-.11,1.36v1.25l-.23,1.25-.11,1.13-.23,1.25-.22,1.13-.34,1.13-.34,1.13-.46,1-.34,1-.45,1-.57.91-.57.91-.56.91-.57.91-.68.79-.57.68-.68.57-.79-.91.79-.79.68-.79.68-.91.57-.91.57-.91.56-1,.46-1,.45-1.13.46-1.13.34-1.13.22-1.25.34-1.25.12-1.25.22-1.25v-1.36l.12-1.36V-278l-.12-1.13-.11-1.25-.11-1.13-.23-1.13-.23-1.13-.22-1.13-.34-1-.34-1.13-.46-1-.45-1-.46-.91-.56-1-.57-.91-.57-.91-.56-.91-.68-.79-.8-.91-1.47-1.59-1.59-1.47-1.81-1.36-1.82-1.25-1.92-1.13-2.16-1-2.15-.91v.11l-.12,2.27-.22,2.27-.12,1-.22,1.13-.34,1-.34,1,.9,1.25.91,1.25.91,1.25.9,1.13,1,1.13.9,1.13.91,1,1,.91,1,1,1,1v-1.36l-.11-1.36-.12-1.36-.22-1.25-.23-1.25-.34-1.25-.34-1.13-.45-1.25-.46-1.13-.45-1-.57-1.13-.56-1-.68-1-.69-1-.79-.91-.68-.91.11.23,2,.91,1.81,1,1.81,1.25,1.59,1.25,1.59,1.36,1.36,1.47,1.36,1.59,1.25,1.7,1,1.81.9,1.81.8,1.93.68,1.93.45,2,.46,2.15.11,2.15.11,2.27-.11,1.25-.11,1.25-.12,1.25-.22,1.13-.23,1.25-.34,1.13-.34,1.13-.46,1.13-.45,1-.45,1-.46.91-.56.91-.57.79-.57.68-.56.68-.57.57-.79-1-.68-1-.46-1-.22-.57-.23-.57-.23-1.25-.34-1.25v-.34l-.11-.23v-.23l-.23-.11-.11-.23-.23-.11-.23-.11h-.68l-.22.11-1.48.91-1.36.91-1.24,1-1.14,1.13-1.13,1.13-.91,1.25-.91,1.25-.79,1.36-.57,1.13-.45,1.13-.34,1.13-.23,1.25-.22,1.25-.23,1.36v2.61l-1.48,1.47-1.81,1.36v.11l-1.81,1.25-1.7,1.25-.91.45-.91.45-.79.45-.91.34-.45.23-.46.11-.79.23-.57.11h-.9l-.34-.11-.23-.11-.34-.11-.34-.34-.34-.45-.11-.11-.12-.34-.11-.57v-.45l.11-.34.12-.34.34-.45.22-.23.23-.23.34-.23.34-.34.34-.23.45-.23.34-.11,1.14-.68,1.13-.68,1.13-.57,1-.68,1-.79,1-.91,1-1,.56-.57.57-.57.11-.23.12-.11.22-.23.34-.34.23-.34.11-.23.12-.11v-.11h0v.11l-.23.23h0v.11l-.79-.34-.68-.45-1.48-.79-1.47-1-1.25-1-1.25-1.13-.45-.68-.57-.57-.45-.57-.34-.68-.34-.57-.34-.57-.34-1-.34-.91-.23-.91-.22-.91L1127-267l-.11-.91v-.79l-.12-.91.12-.79v-.79l.22-1.59.34-1.47.57-1.47.57-1.47.68-1.36.79-1.36.91-1.25.9-1.36,1-1.25,1.92-2.61,1.36-1.59,1.14-1.59,1.24-1.59,1-1.59.91-1.7.46-.79.34-.91.22-.79.34-.91.12-.91.22-.91.12-2Zm0,0M1154-261l-.11-.34Zm0,0-.22-.34-.12-.34Zm0,0-.12-.34-.11-.34Zm0,0-.22-.34-.23-.68Zm0,0-.23-.79-.11-.34Zm0,0-.11-.34-.12-.34Zm0,0-1.7-2,0,0-2.72,9.41.11.79Zm0,0,.11,1.25.11,1.25Zm0,0,3-26.64-.91-.79-1-.79-.91-.79-.9-.91-1.71-1.93-1.81-1.93-1.7-2.27-1.7-2.27-1,1.59-1,1.59-1.25,1.59-1.25,1.59.12.11.9,1.36,1,1.25.91,1.13.91,1.25.91,1.13.9,1,1,1,.91,1,1.36,1.25,1.36,1.13,1.36,1.13,1.36,1,.34-1,.34-.91.34-1,.34-1.13.23-1,.23-1.13.22-1.13Zm0,0-3.29,10.66-1.59-1-1.47-1.25-1.48-1.36-1.47-1.36-.91-1-1-.91-.91-1.13-.9-1-.91-1.25-1-1.13-.91-1.25-.9-1.25-1.25,1.59-1.25,1.7-1.13,1.7-1,1.7.11.11.91,1.36.9,1.25,1,1.13.9,1.25.91,1,.91,1.13,1,1,.9.91,1.25,1.25,1.25,1,1.13,1,1.25.91.79-.57.8-.68.79-.68.68-.79.68-.68.68-.91.68-.91Zm0,0-7.94,7.48-1.13-.79-1-.91-1.14-1-1-1-1.81-1.93-1.81-1.93-1.71-2.27-1.7-2.27-.45,1.36-.34,1.36-.23,1.47v3.06l.12.79.22.79.23.91.23.79.22.91.34.91.46.91.68.91h1.7l1.13-.11,1-.11,1.14-.11,1-.23,1-.34.9-.34,1-.34Z" transform="translate(-1082.86 322.08)"/><path class="cls-1" d="M1116-247.81l.91,2.27,1,2.27,1,2.16,1.13,2.15,1.14,2,1.24,1.93,1.36,1.81,1.37,1.81,1.47,1.7,1.59,1.59,1.7,1.47,1.81,1.47,1.82,1.25,2,1.25,2,1.13,2.15,1,2.27.91,2.27.79,2.49.68,2.38.57,2.61.45,2.5.23,2.6.11h2.61l2-.11,2.16-.34,2-.45,2-.45,1.93-.79.9-.34.91-.45.91-.57.9-.57.91-.57.79-.57h0l.23-.23h0l.23-.23.34-.23.23-.23.34-.34.79-.79.79-.79.8-.79.79-.91.57-.91.22-.45.23-.34.11-.57v-.45l-.11-.11-.23-.23-.11-.11-.34-.11-.11-.11h0l-.57-.23v-.11l-.57-.34-.56-.34-.91-.91-.79-.91-.69-.91-.56-1-.46-1.13-.34-1.13-.22-1.25v-3.52l.22-1.25.34-1.25.34-1.13.46-1.13.45-1.13.12-.11.22-.45.12-.34.34-.68.34-.79.34-.79.45-.79.79-1.81.91-1.93.91-2,1-2.16,2-4.31.91-1.93.9-1.81.91-1.81.91-1.81.79-1.59.79-1.47.34-.79.34-.57.34-.68.35-.57.45-.79.45-.79.57-.68.45-.68.57-.57.57-.45.45-.34.45-.34.46-.23.56-.11h.8l.11.11.45.23.34.34.34.34.12.57v1.47l-.12.68-.22.68-.23.79-.34.91-.34.91-.45.91-.34.91-.8,1.93-1.7,4-.9,2.27h0l-1.82,4.19-.91,2-.9,1.93-.23.57-.23.57-.22.57-.23.45-.23.45-.11.34-.11.34v.79l.11.11.11.11.23.11h.23l.22-.11.23-.11.34-.45.45-.57.34-.68.23-.45.23-.45h0l1.81-4,4.08-8.62,2-4.31,1.13-2.27,1.13-2.27.46-.79.34-.68.56-.68.46-.68.45-.45.45-.45.46-.45.45-.23.45-.23.46-.11h.79l.57.23.34.34.23.11.11.23.11.34.12.23v1.36l-.12.68-.22.57-.23.79-.23.79-.34.91-1.13,2.61-1.25,2.61-2.38,5.1-2.83,6.24-1.48,3.17-1.25,3.17-.22.45-.12.34-.11.34v.34l-.11.23v.23l.11.34v.11l.23.11h.22l.12-.11.22-.11.34-.34.23-.45.68-1,.23-.45.11-.34h0l1.36-2.61,1.36-2.61,2.5-5.33,1.58-3.63,1.82-3.63.91-1.93,1-1.93,1-1.93,1.13-2,.34-.57.34-.45.45-.45.34-.34.46-.34.45-.34.46-.23.34-.11.45-.11h.68l.45.11h.12l.34.23.22.23.34.34.12.34.11.34.11.34v.91l-.11.45-.11.57-.12.57-.22.57-.34.68-.23.68-.68,1.59-.68,1.59-.79,1.81-.8,1.81-.79,1.93-1.82,4-1.47,3.29-.79,1.59-.68,1.59-.8,1.59-.68,1.47-.68,1.36-.68,1.25-.23.45-.22.45-.12.34-.11.34-.11.34-.12.23v.57h.46l.45-.11.34-.23.34-.45.46-.45.45-.68.45-.68.34-.68.91-1.47.79-1.59.34-.68.34-.68.23-.68.34-.57.23-.45v-.11l.11-.23.23-.45.22-.45.23-.57.57-1.13.56-1.25,2.39-5.1,1.13-2.5,1.13-2.38.57-1.13.57-1.13.56-1,.46-1,.56-.91.46-.79.45-.79.46-.68.22-.34.34-.45.34-.34.34-.23.46-.23.34-.23.45-.11.34-.11h.79l.34.11.34.11h.12l.34.23.34.23.22.34.23.34.11.34.12.45v.79l-.12.45-.11.57-.11.57-.23.68-.34.79-.34.79-.34.91-.45,1-.34,1-.46,1-.45,1.13-.57,1.13-1,2.27-1,2.49-1.25,2.61-1.24,2.61-1.82,3.86-1.92,3.85-2.16,3.86-2,3.86-1.47,2.38-1.36,2.27-.68,1-.68,1-.69,1-.68.91-.79.91-.68.91-.68.79-.79.68-.68.68-.8.57-.79.45-.79.34-.57.23-.57.23-1,.34-.91.11-.9.11-.8.11-.68-.11h-.79l-.57-.11h-2l-.34.11-.34.23-.45.23v.11l-.34.34-.23.34-.34.45-.34.57-.45.45-.46.57-.45.57-.57.68-1,1.25-1.25,1.36-1.36,1.36-1.47,1.25-.11.11h0l-.34.23-.46.34-1.92,1.36-2.16,1.25-2.15,1.13-2.27,1-2.27.91-2.27.79-2.38.68-2.38.57L1158-208l-2.5.34-2.49.23-2.5.11h-2.49l-2.5-.23-2.49-.23-2.49-.34-2.5-.45-2.49-.57-2.5-.68-2.38-.79-2.38-.91-2.38-1-2.27-1.13-2.27-1.13-2.26-1.36-2.05-1.47-2-1.47-2-1.59-1.92-1.81-1.82-1.81-1.7-1.93-1.59-2-.34-.45-.34-.45-1-1.47-.91-1.47-.68-1.47-.68-1.47-.56-1.36-.46-1.47-.34-1.36-.22-1.36-.23-1.36v-3.85l.23-1.13.11-1.13.34-1,.34-1,.23-.79.34-.68.34-.68.45-.57.34-.57.45-.45.46-.45.45-.45.57-.34.57-.34.56-.23.68-.23.57-.11h1.25l.68.11.45.11.45.23.46.23.45.23.46.34.45.34.45.45.46.45.45.57.45.57.34.57.46.79.45.68.34.79.34.91Zm0,0M1213-275l-.57,1.25-.56,1.47-.57,1.47-.68,1.47-.68,1.59-.8,1.59-1.36,3.29-1.47,3.17-.79,1.59-.68,1.59-.8,1.47-.68,1.47-.68,1.36-.57,1.25-.34.68-.34.68-.22.57-.12.45-.11.45v.34l.11.34.12.23.11-.45.23-.68.34-.79.34-.79.68-1.36.68-1.47.79-1.47.68-1.59.8-1.59.79-1.7,1.59-3.4,1.47-3.4.68-1.59.79-1.7.69-1.47.56-1.59.57-1.36.57-1.25-.23-.11Zm0,0-16.22,45.36-.56.23-.57.23-1.36.23-1.47.23h-2.95l-1.59-.23-1.47-.23-1.59-.34-1.47-.57-1.37-.57-1.24-.68-.68-.45-.57-.45-.45-.34-.57-.57-.45-.45-.34-.57-.34-.45-.34-.68-.23-.57-.23-.57.12.79.22.79.34.79.46.68.45.68.57.68.68.57.68.57.45.34.57.23.79.45.8.45.9.34,1,.34.91.34,1,.23.91.23,1,.11,1.47.11h3l1.36-.23,1.25-.23,1.13-.45.57-.23.68-.45.57-.34.56-.57.68-.57.57-.57.57-.68.56-.68.68-.68.57-.79,1.13-1.81,1.25-1.81,1.14-1.93.34-.57,1-1.81,1.24-2,1.14-2.15,2.38-4.42,2.15-4.31,1-2.27,1-2,1-2.16.91-2,.8-1.93.9-1.93.8-1.81.68-1.7.56-1.59.68-1.47-.22-.11-.34-.11-.57,1.47-.68,1.59-.68,1.7-.79,1.81-.8,1.81-.91,1.93-.9,2-.91,2-1,2-1,2.15-2,4.2-2.27,4.19-1.13,2-1.14,2-1.13,1.81-1.25,2.15-1.25,1.93-1.13,1.81-.68.79-.57.79-.56.68-.68.68-.57.68-.68.57-.57.45-.56.45-.68.34Zm0,0-89.57-.91-.57-.91-.56-.91-.57-.91-.45-1-.46-.91-.45-.91-.34-.91-.34-.91-.46-1.7-.34-1.81-.22-1.7-.12-1.59.23-.79.34-.91.34-.68.46-.68.34-.68.45-.57.45-.57.57-.45-.68.45-.68.45-.57.68-.57.68-.45.79-.45.91-.46,1-.34,1,.12,1.59.22,1.7.34,1.7.46,1.81.34.91.34.91.45.91.46.91.45.91.57.91.56,1,.68.91,1.48,1.93,1.58,1.93,1.82,1.81,1.7,1.7,1.93,1.7,1.92,1.47,2,1.47,2.15,1.36,2.15,1.13,2.16,1.13,2.27,1,2.26,1,2.27.79,2.38.68,2.38.68,2.5.45,2.38.45,2.38.23,2.49.23,2.39.11h2.49l2.38-.11,2.38-.23,2.38-.34,2.38-.45,2.27-.57,2.27-.68,2.27-.79,2.15-.91,2.16-1,2-1.13,2-1.25-2,1.13-2,1.13-2.16.91-2.15.79-2.16.79-2.26.57-2.27.57-2.38.34-2.38.34-2.27.11-2.5.11h-2.38l-2.38-.11-2.38-.23-2.38-.34-2.38-.45-2.38-.45-2.27-.68-2.38-.68-2.27-.91-2.27-.91-2.15-1-2.16-1.13-2.15-1.25-2-1.25-1.93-1.47-1.93-1.47-1.92-1.59-1.7-1.7-1.71-1.81-1.58-1.93Z" transform="translate(-1082.86 322.08)"/><path class="cls-1" d="M1375.27-297l.9-.11H1378l.91.11,8.73,21.88.22.34.23.34.23.23.34.11.68.34.68.34v1.59h-11.34v-1.59l3-.68-1-2.49-.46-1.25-.45-1.25h-7.94l-1.93,5,2.39.68v1.59H1364v-1.59l1.14-.45.56-.34.46-.34,4.53-11.23Zm0,0-31.41.57h16l5.33.11.11,2,.23,1.93.22,2,.23,2h-1.81l-1.25-2.61-1.14-2.61h-4.64v19.39l1.58.34,1.59.34v1.59h-12v-1.59l1.59-.23,1.59-.45v-19.39h-4.2l-.57,1.25-.56,1.25-.57,1.36-.57,1.25-.45.11h-1.47l.22-2,.23-2,.23-2Zm0,0-28.69,0h12v1.59l-3.06.57-.11,2.15v2l.11,4.08h3.06l5.9-8.16-1.48-.34-1.36-.34v-1.47l2.72-.11h8.17v1.59l-.8.23-.79.34-.79.34-.8.45-.79.57-.68.45-.57.68-.68.57-2.83,3.29-2.84,3.18,1.59,1.93,1.59,1.93,1.7,1.81.91.79.9.91.57.45.68.45.68.45.68.34.79.23.8.23h1.47v.45l-.11.45-.23.45-.22.45-.23.34-.34.45-.34.23-.46.34-.45.23-.45.11-.46.11-.56.11h-1l-.91-.11-1-.23-.91-.34-.91-.57-.79-.57-1-1-.91-1.13-.79-1.13-.79-1.25-.8-1.25-.68-1.25-1.36-2.5h-2l-.11,4.31v4.42l3.17.68v1.59h-12v-1.59l3.18-.68v-15.08l-.12-5.1-3.06-.57Zm0,0-22.22,0h18.59l.12,1.81.11,1.81.34,1.7.11.91.35.79h-.69l-.56.11h-.57l-.23-.11-.34-.11-1.13-2-1.25-1.93h-6v7.71h2.27l.79-.11.91-1.59.8-1.7h1.81l-.11,1.25-.12,1.13-.11,1.25v2.5l.11,1.13.12,1.25.11,1.25h-1.81l-.91-1.81-.8-1.7h-3.06v8.28h6.35l1.36-2.38,1.25-2.49H1313l-.23,1-.22.91-.23,1.93-.23,1.93v1.93h-19.16v-1.59l3.17-.68v-15.08l-.11-5.1-3.06-.57Zm0,0-37.08,0h2.61l-.34,3.74-.34,3.74h4.65l.68-7.48h2.49l-.22,3.74-.34,3.74h5v2.61h-5.11l-.22,2.27-.23,2.15h4.76l.12.34.11.34v1.93h-5.22l-.56,7.48h-2.61l.56-7.48H1257l-.23,3.74-.34,3.74h-2.61l.34-3.74.23-3.74h-4.76v-2.61h5l.23-2.15.23-2.27H1250v-2.61h5.33l.22-3.74Zm0,0,1.82,10.09h0l-.46,4.42h4.54l.11-.45.12-.57.11-1.13v-1.13l.11-.57v-.57h-4.53Zm0,0,20.86-9.75.68-.23.68-.23.68-.11.79-.11.68-.11h.68l1.48.11,1.36.23,1.36.34,1.36.57,1.25.68.11,1.47.11,1.47.34,2.95h-2.26l-.68-1-.68-1.13-.68-1-.68-1-.68-.23-.68-.23-.69-.11-.68-.11-.68.11-.56.11-.68.23-.57.34-.45.57-.34.57-.23.57v1.36l.23.57.11.34.23.23.22.23.23.23,1,.57,1,.57,1.13.45,1.14.34,1,.45,1.13.45,1,.57.91.68.45.34.46.45.34.45.34.57.22.57.23.45.23.68.11.57.11.57v1.81l-.11.57-.23.68-.11.57-.23.45-.56.91-.57.68-.68.68-.79.45-.8.45-.9.45-.91.23-.91.23-1,.11-1,.11h-1l-1-.11-1-.11-1-.23-1-.34-.91-.45-.57-.34-.56-.45-.46-.45-.45-.57-.34-.57-.23-.57-.22-.68v-1.25l.22-.57.23-.57.34-.45.34-.45.45-.34.57-.34.57-.23.57,1.36.56,1.36.34.57.46.68.45.57.45.45.57.57.68.34.79.23.68.23H1283l.68-.23.8-.23.22-.23.34-.23.23-.23.23-.34.22-.57.23-.68v-.68l-.11-.68-.23-.57-.23-.34-.22-.23-.34-.45-.46-.23-.91-.57-1-.45-.9-.34-1.93-.68-1-.34-.91-.45-.79-.45-.8-.68-.45-.34-.34-.34-.23-.45-.34-.45-.22-.68-.23-.79-.23-.68v-2.38l.23-.79.23-.68.34-.79.34-.68.45-.57.45-.68.57-.57.57-.45.68-.45Zm0,0,97.51,5.44h0l-3.4,8.73h6.12L1378-284l-.68-2.15Z" transform="translate(-1082.86 322.08)"/><rect class="cls-2" x="166.78" y="100.28" width="140.37" height="6.12"/><rect class="cls-2" x="166.78" y="13.31" width="140.37" height="6.12"/><path class="cls-1" d="M1153.39-266.74l.11.45.23,1.25.34,1.25.34,1,.57,1,.56,1,.8,1,.79.91.91.91,1.92,1.7,1.48,1.47,1.59,1.59.68.79.68.79.56.91.57.79.45,1,.34.91.34,1,.23,1.13.11,1.13-.11,1.13-.11,1.25-.23,1.36-.34.91-.45.91-.57.91-.68.91-.68.79-.68.68-.79.57-.8.57.12.23.22.23.8.57.79.57.68.45.68.34,1.47.68.8.34.79.23.23.11h.11l.68.23.46.34.34.34.34.23h0l.11.23.11.23.12.57v.34l-.12.45-.22.34-.34.34-.34.34-.34.11h-.23l-.46.11h-.45l-.57-.11-.68-.11-.56-.11-.68-.23-1.25-.45-1.25-.57-1.24-.68-1.37-.91-1.24-.91-.68-.45-.46-.34-.45-.45-.45-.45-.23-.23-1.47.11-1.48-.11-1.36-.23-1.36-.34-1.25-.45-1.24-.68-1.14-.68-1.13-.91-.91-.91-1-1.13-.79-1.13-.68-1.36-.68-1.36-.57-1.47-.45-1.59-.34-1.7-.23-1.7v-3.18l.23-1.47.22-1.47.46-1.47.45-1.36.68-1.36.79-1.25.8-1.36,1-1.13,1-1.25,1.25-1,1.24-1,1.36-.91,1.36-.91.23-.11h.79l.23.11.11.11.23.11.11.23.12.23Zm0,0-10.55,13.61.23-.91.23-.91.34-.91.34-.79.34-.91.45-.79.45-.79.57-.79.57-.68.57-.79.68-.68.68-.68.68-.68.79-.57.79-.57.8-.57-.8,1.36-.68,1.36-.45,1.59-.45,1.47-.23,1.59-.11,1.7.11,1.7.11,1.7.34,1.59.46,1.47.45,1.47.57,1.25.79,1.25.68,1.13.91,1,.9.91,1,.79,1,.68,1.13.45,1.25.45,1.24.34,1.25.23h2.84l.11-.11h.57l.45-.11.23-.68.22-.57.23-1,.11-1,.12-.91-.12-.91v-.91l-.22-.79-.23-.79-.34-.68-.34-.79-.34-.68-.45-.68-.46-.68-1.13-1.25-1.14-1.25-2.49-2.27-1.13-1.13-1.25-1.25-1-1.25-.45-.57-.46-.68-.45-.68-.34-.68-.34-.79-.23-.79-.34-1.36-.23-1.47v-.11l-.9.57-.91.57-.79.57-.8.68-.79.57-.68.68-.68.68-.68.79-.46.57-.34.57-.68.91-.56.91-.46,1-.45,1-.34,1.13-.34,1-.23,1.13-.22,1.13v3.74l.22,1.36.23,1,.23,1,.22.91.34.91.34.91.34.79.46.79.45.79.45.68.57.68.57.68.57.57.56.45.68.57.68.45.68.34-.68-.34-.56-.45-.57-.57-.57-.57-.57-.57-.45-.57-.57-.68-.34-.68-.45-.79-.34-.68L1144-242l-.23-.91-.34-.79-.23-.91-.22-.91-.12-1-.22-.79v-.91l-.12-1.7.12-1.59Z" transform="translate(-1082.86 322.08)"/><path class="cls-1" d="M1163.37-250.64l-.91,1.81-1,1.7-1,1.59-1,1.47-1,1.36-1.14,1.25-1,1.13-1.13.91-.23.23-.11.34v.34l.23.23.22.23.23.11.34-.11.23-.11,1.24-1,1.14-1.13,1.24-1.25,1.14-1.47.45-.68.46-.57.79-1.13.34-.68.34-.68.45-.68.46-.91.22-.45.12-.34v-.34l.11-.34v-.23l-.11-.23v-.23l-.12-.11-.22-.23h-.34l-.23.11Zm0,0-9.53-10.09-.45.91-.46.91-.9,1.59-1,1.59-1,1.36-1,1.36-1,1.25-1.14,1-1.13,1-.23.23v.57l.11.34.23.23h.57l.34-.11,1.25-1,1.13-1.13,1.13-1.36,1.14-1.36,1-1.36.9-1.47.91-1.59.46-.79.45-.91.11-.34-.11-.34-.11-.34-.12-.23-.22-.23h-.57l-.12.11Zm0,0,5.56,6.8.11-.23.11-.23v-.45l-.11-.45-.23-.23-.22-.23-.23-.11h-.11l-.12.11-.11.11-.91,1.81-1,1.7-1,1.59-1,1.47-1,1.36-1.13,1.13-1,1.13-1.14.91-.22.34-.12.23v.34l.23.34.23.11.22.11h.34l.34-.11,1.14-1,1.24-1.25,1.14-1.25,1.13-1.47.46-.68.45-.68.91-1.25.45-.68.34-.79.45-.79Z" transform="translate(-1082.86 322.08)"/><path class="cls-1" d="M1293.06-263.64l1.7-.11,1.7-.11,1.71-.11,1.81.11,1.7.11.91.23.79.23.91.23.79.23.91.45.79.34h0l1.25.79,1.13.79,1,1,1,1h0l.91,1.25.8,1.36.68,1.36.45,1.36h0l.45,1.47.34,1.59.23,1.47.11,1.47v3.29l-.22,1.59-.23,1.59h0l-.34,1.59-.57,1.59-.56,1.47-.8,1.47-.91,1.25-.9,1.13-1,1-.57.57-.68.45h0l-1.25.79-1.36.68-1.36.45-1.36.45-1.59.34-1.7.23-1.58.11-1.71-.11h0l-1.47-.11-1.59-.23-1.47-.34-1.48-.57h0l-1.24-.57-1.25-.68-1.25-.79-1-.91h0l-.56-.57-.57-.57-.45-.68-.46-.57-.91-1.36-.68-1.47h0l-.56-1.59-.46-1.7-.34-1.7-.22-1.81h0l-.12-1.93v-1.81l.23-1.93.34-1.93.34-1.59.57-1.7.79-1.47.34-.79.45-.68.12-.11.79-1.13,1-1,1-1,1.14-.79,1.36-.79,1.24-.68,1.48-.45,1.36-.34Zm0,0,6.81,1.47h-3.29l-1.7.11-1.59.23-1.25.34-1.25.45-1.13.57-1.13.68-1,.68-.91.91-.79.91-.8,1h0l-.45.68-.34.68-.68,1.47-.57,1.36-.34,1.59-.34,1.7-.11,1.81v3.51h.11l.11,1.59.34,1.59.46,1.59.57,1.47h0l.56,1.25.8,1.25.79,1.13,1,1h0l.91.79,1,.68,1.13.57,1.14.57h0l1.24.45,1.36.34,1.48.23,1.36.11H1298l1.59-.11,1.47-.11,1.48-.34,1.24-.34,1.25-.45,1.14-.68,1.13-.68h0l1-.91,1-.91.79-1,.68-1,.68-1.36.68-1.36.46-1.36L1313-241h0l.23-1.47.11-1.47.11-1.59-.11-1.47-.11-1.36-.12-1.47-.34-1.36-.45-1.36h0l-.46-1.25-.56-1.25-.68-1.13-.8-1.13h0l-.9-.91L1308-259l-1-.79-1.13-.68h0l-.68-.34-.8-.34-.68-.23-.79-.23-1.48-.34Zm0,0,54.65-1.25h18.71l1.81.11,1.81.23,1.82.23,1.7.57,1.47.45,1.36.79.68.34.69.45.68.45.56.57h0l.57.57.57.57.56.68.46.68.45.68.45.68.34.79.34.68.23.91.34.91.23.91.22.91.23,1.81.11,1.81v1.93l-.11,1.93-.34,1.93-.11.91-.34,1-.46,1.59-.34.68-.34.79-.45.79-.45.68-.46.68-.56.68-.57.68-.68.57-.68.57-.68.57-.8.45-.79.34-.79.45-.8.34-.9.34-1,.23-.91.23-1,.23-1,.11-1,.11-1.93.11h-11.23l-7.71-.11h-.34l-.22-.23-.23-.23v-1.25h0v-1.25l.23-.23.11-.23.34-.11,1.13-.23,1-.23,1.36-.34V-259l-.68-.23h0l-1.48-.23-1.36-.34-.34-.23-.23-.11-.11-.34v-.23h0v-2.16l.23-.23.34-.23Zm0,0,9.41,1.81h-8.51v.23l2,.45h0l.68.11.79.23.23.11.22.11.23.34v28.91l-.23.34-.22.23-.34.11-1,.11-1,.23-.68.23-.69.11v.23h17.92l1.81-.11,1.82-.23.91-.11.9-.23.91-.23.91-.34,1.36-.68.68-.34.68-.34.56-.45.69-.57.45-.45.57-.57.45-.57.45-.68.8-1.25.56-1.36.46-1.47.22-.79.23-.91L1389-243l.11-1.81v-1.81h0l-.11-1.59-.23-1.7-.34-1.7-.34-.79-.23-.79-.56-1.36-.8-1.25-.34-.57-.45-.57-.57-.45-.45-.57h0l-.57-.45-.57-.34-1.13-.79-1.25-.57-1.36-.57-1.58-.34-1.59-.34-1.7-.23h-11Zm0,0,5.89,5.22v15.87l.12,5.78h3.4l1-.11.57-.23.56-.34.57-.45.45-.45.57-.68.46-.79.34-.79.22-.79h.12l.22-1.25.23-1.25.11-1.25.12-1.25v-2.84l-.12-1.36-.22-1.36-.12-.91-.22-.79-.23-.79-.34-.79-.45-.79-.46-.68-.45-.57-.68-.45-.46-.23-.56-.23-.57-.11-.57-.11-1.24-.11-1.25.11Zm0,0-1.7,10.2v-11.11h0l.12-.34.11-.34.34-.11.34-.11h4.76l.68.23.68.11.68.34.68.34h0l.46.34.45.34.68.68.68.91.46.91.34.91.34.91.22,1,.23.91h0l.11,1.47.12,1.47.11,1.47-.11,1.59V-243l-.23,1.36-.23,1.36-.22,1.25v.11l-.34,1-.46,1-.56.91-.68.91-.68.57-.69.57-.9.45-.46.23-.45.11h-.11l-1,.11-1,.11H1369l-.34-.11-.34-.23-.23-.23v-12.7Zm0,0,0-11.11-118.48-6.12h27.21l.34.11.34.23.11.23.12.34.11,2.72.11,1.25.12,1.36.22,1.25.23,1.36.23,1.25.34,1.25.11.45-.11.23-.23.34-.34.11h-2.15l-.35-.11-.22-.11-.12-.23-1-1.36-1.24-1.59-.57-.79-.34-.45-.45-.45-3.86-.11h-3.17v7.37h2.72l.56-.91.57-.91.68-1.13.68-1.25.23-.23.11-.11h.23l.23-.11h0l1.7.11h.34l.34.23.22.23v.57h0l-.22,1.81-.23,1.81-.11,1.81v3.63l.11,1.81.23,1.81.22,1.81v.34l-.11.23-.23.34-.34.11h-2.15l-.23-.11-.11-.11-.23-.23-.68-1.13-.68-1.13-.57-.91-.56-1h-2.72v9.3l1.81.34.79.11.57.11,1.25.23.34.11.23.23.11.23v.34h0v2.15l-.23.23-.22.23-.34.11h-11.91l-7.82-.11h-.34L1249-228l-.23-.23v-.34h0v-2.16l.23-.23.22-.23.23-.11,1.13-.23,1-.23h0l1.48-.34V-259l-.8-.23-1.47-.34-1.47-.34-.23-.11-.23-.23-.11-.23v-.23h0v-2.16l.23-.34.34-.11Zm0,0,7.59,1.81h-6.8v.23l2.15.45.8.11.68.23h0l.34.11.22.11.12.34v28.91l-.12.34-.22.11-.34.11-2.16.45h0l-1.47.34v.23h18v-.23l-1-.11-.91-.23-1.25-.23-1.24-.11h0l-.34-.11-.23-.23-.11-.34-.12-.23v-11l.12-.34.22-.23.23-.23.34-.11h4.19l.23.11h.23l.11.23.23.11.57,1.13.68,1.25.56.91.57.91h.23l-.12-1.59-.22-1.59-.12-1.7v-3.29l.12-1.59.22-1.7.12-1.59h-.23l-.57.91-.56,1-.68,1.13-.57,1.13h0l-.23.23-.11.11-.23.11h-4.42l-.34-.11-.23-.11-.22-.34-.12-.34v-9.18h0l.12-.34.22-.23.23-.23h9l.11.11.23.11.11.11.11.23.23.23.34.45.45.57.46.68,2.15,2.61h.23l-.57-2-.34-2.16-.23-2.27-.11-2.38h-18.71Zm0,0,72.68-2,1.7-.11,1.7-.11L1335-264l1.81.11,1.7.11.91.23.79.23.91.23.79.23.8.45.79.34h.11l1.25.79,1.13.91,1,.91,1,1,.91,1.25.8,1.36.56,1.36.57,1.36h0l.45,1.47.34,1.59.23,1.47.11,1.47v3.29l-.22,1.59-.23,1.59h0l-.34,1.59-.57,1.59L1350-236l-.68,1.47-.91,1.25-.9,1.13-1.14,1-1.13,1h0l-1.36.79-1.25.68-1.36.45-1.47.45-1.59.34-1.59.23-1.7.11-1.59-.11h0l-1.58-.11-1.48-.23-1.47-.34-1.47-.57h0l-1.37-.57-1.24-.68-1.14-.79-1-.91h-.11l-.57-.57-.45-.57-.91-1.25-.9-1.36-.69-1.47h0l-.56-1.59-.46-1.7-.34-1.7-.22-1.81h0l-.12-1.93v-1.81l.23-1.93.34-1.93.34-1.59.57-1.7.34-.68.45-.79.34-.79.46-.68v-.11l.9-1.13,1-1,1-1,1.14-.79,1.24-.79,1.37-.68,1.36-.45,1.47-.34Zm0,0,6.69,1.47h-3.17l-1.7.11-1.59.23-1.25.34-1.24.45-1.14.57-1.13.68-1,.68-.91.91-.91.91-.68,1h-.11l-.68,1.36-.68,1.47-.57,1.36-.34,1.59-.23,1.7L1319-247v1.7l.11,1.81h0l.11,1.59.35,1.59.45,1.59.57,1.47h0l.56,1.25.68,1.25.91,1,.91,1v.11l1,.79,1,.68,1,.57,1.13.57h0l1.36.45,1.36.34,1.36.23,1.48.11h1.47l1.48-.11,1.58-.11,1.48-.34,1.24-.34,1.14-.45,1.25-.68,1-.68h.11l1-.91.91-.91.9-1,.68-1,.68-1.36.57-1.36.46-1.36.34-1.47h.11l.23-1.47.11-1.47V-247l-.11-1.36-.23-1.47-.23-1.36-.45-1.36h0l-.45-1.25-.57-1.25-.68-1.13-.8-1.13-.9-.91-.91-.79-1-.79-1-.68h-.11l-.68-.34-.8-.34-.68-.23-.79-.23-1.59-.34Zm0,0-2.83,4.76-.34.11-.34.23-.57.45-.57.57-.34.68-.45.79-.34.79-.23.91-.22.79v.11l-.23,1.59-.23,1.7-.11,1.7v3.4L1330-242l.11,1.7.34,1.59h0l.45,1.47.23.79.34.68h0l.34.57.45.57.57.45.57.34h0l.45.11.46.11h.45l.45-.11.57-.11.45-.34.46-.34.34-.34h0l.56-.91.46-.91.34-.91.22-1,.23-1,.23-1.13.22-2v-1.59l.12-1.59-.12-1.59-.11-1.59-.11-1.47-.34-1.47-.46-1.59-.45-1.36-.11-.11-.34-.57-.34-.57-.57-.45-.45-.45-.57-.23-.57-.11h-.56Zm0,0-3.74,1.13.56-.91.34-.45.46-.34.34-.34.45-.34.57-.23.56-.23.46-.11.45-.11h.91l.45.11.46.11.79.45.45.23.34.23.68.68.68.79.46.91h0l.56,1.59.46,1.7.34,1.59.22,1.7.12,1.59v5l-.34,2.27-.12,1.13-.22,1.13-.34,1.13-.46,1.13-.56,1-.68,1-.57.68-.57.45-.79.45-.79.23-.8.11-.79.11-.8-.23-.34-.11-.34-.11h0l-.45-.23-.45-.34-.68-.57-.57-.79-.57-.79h0l-.34-.79-.34-.79-.22-.79-.23-.91h0l-.34-1.81-.23-1.7-.11-1.7-.11-1.81.11-1.81.11-1.7.12-1.81.34-1.7v-.11l.22-1,.34-.91.34-1Zm0,0-33.11-1.13-.57.23-.45.34-.46.45-.34.45-.45.57-.23.68-.56,1.36-.34,1.36-.23,1.36-.11,1.47-.12,1.47-.11,1.36v1.47l.23,2.95.22,1.93.23,1,.23,1,.34.91.34.79.45.91.57.68h0l.22.23v.11l.46.23.45.23.45.11.57.11h.46l.56-.11.46-.23.45-.34.23-.23h0l.34-.45.34-.34.45-1,.45-.91.34-1,.23-1.13.23-1.13.22-2.27.12-1.59v-3.18l-.12-1.59-.22-1.47-.34-1.47-.34-1.59L1301-255v-.11l-.34-.57-.45-.57-.46-.45-.56-.45-.57-.23-.45-.11h-.57l-.57.11Zm0,0-3.29.45.57-.68.68-.68.34-.23.34-.23.45-.23.45-.11.46-.11.45-.11h.91l.45.11.46.11.79.45.45.23.34.23.8.68.56.79.46.91h0l.56,1.59.46,1.7.34,1.59.22,1.7.12,1.59.11,1.7-.11,1.59v1.7l-.34,2.38-.12,1.25-.34,1.25-.34,1.13-.56,1.25-.23.57-.34.45-.45.57-.34.45-.12.11-.34.34-.34.23-.34.23-.79.34-.79.23h-1.71l-.79-.23-.68-.34-.34-.34-.34-.23h-.11l-.34-.34h0l-.68-1-.57-.91-.45-1.13-.34-1-.23-1-.23-1.13-.34-2.15h0l-.11-3.06v-2.95l.11-1.59.23-1.47.23-1.47.34-1.59h0l.34-.79.22-.79.46-.68Z" transform="translate(-1082.86 322.08)"/><polygon class="cls-1" points="170.06 61.27 170.52 60.48 168.93 60.48 168.7 60.93 170.06 61.27"/><polygon class="cls-1" points="172.11 60.48 171.42 61.61 171.65 61.73 171.76 61.84 171.88 62.07 171.88 62.41 171.88 63.54 173.69 60.48 172.11 60.48"/><polygon class="cls-1" points="175.28 60.48 171.99 66.38 171.99 69.21 176.98 60.48 176.19 60.48 175.28 60.48"/><polygon class="cls-1" points="178.57 60.48 171.99 71.93 171.99 74.77 180.16 60.48 178.57 60.48"/><polygon class="cls-1" points="181.74 60.48 171.99 77.6 171.99 80.32 180.38 65.58 180.38 65.02 180.5 64.79 180.61 64.45 180.95 64.34 181.18 64.22 183.33 60.48 181.74 60.48"/><polygon class="cls-1" points="184.92 60.48 182.76 64.22 184.35 64.22 186.51 60.48 184.92 60.48"/><polygon class="cls-1" points="188.09 60.48 185.94 64.22 187.53 64.22 189.68 60.48 188.09 60.48"/><polygon class="cls-1" points="193.42 62.41 191.38 65.92 191.72 66.26 192.06 66.72 192.29 67.06 193.76 64.68 193.42 62.41"/><polygon class="cls-1" points="190.47 64.68 192.85 60.48 192.06 60.48 191.27 60.48 189.11 64.34 189.68 64.34 189.91 64.34 190.02 64.45 190.25 64.56 190.47 64.68"/><polygon class="cls-1" points="193.99 66.94 193.19 68.3 194.1 69.44 194.22 69.44 194.33 69.21 193.99 66.94"/><polygon class="cls-1" points="171.99 85.88 180.38 71.03 180.5 70.46 180.5 69.78 180.5 68.3 171.99 83.16 171.99 85.88"/><polygon class="cls-1" points="180.38 73.97 171.88 88.71 171.88 90.64 171.88 90.98 171.76 91.21 171.65 91.32 171.42 91.55 171.2 91.55 170.86 91.66 170.18 91.78 169.72 92.57 171.31 92.57 181.29 75.11 181.06 75.11 180.95 74.99 180.84 74.88 180.72 74.77 180.61 74.65 180.5 74.43 180.5 74.2 180.38 73.97"/><polygon class="cls-1" points="182.88 75.11 172.9 92.57 174.49 92.57 180.38 82.25 180.38 79.76 180.5 79.53 180.61 79.3 180.72 79.08 181.06 78.96 181.29 78.85 181.63 78.85 182.31 78.85 184.46 75.11 183.44 75.11 182.88 75.11"/><polygon class="cls-1" points="188.43 76.58 186.62 79.87 186.73 80.1 186.96 80.44 187.07 80.78 187.3 81.23 188.55 79.19 188.43 77.94 188.43 76.58"/><polygon class="cls-1" points="188.77 81.8 188.21 82.7 188.43 83.04 188.77 83.5 189 83.5 188.89 82.59 188.77 81.8"/><polygon class="cls-1" points="185.48 78.96 188.66 73.52 188.77 72.05 189 70.46 188.77 70.46 184.01 78.85 184.46 78.85 184.92 78.85 185.26 78.85 185.48 78.96"/><polygon class="cls-1" points="180.38 87.81 180.5 85.08 176.19 92.57 177.66 92.57 180.38 87.81"/><polygon class="cls-1" points="180.38 90.64 179.36 92.57 180.95 92.57 181.4 91.66 181.18 91.55 180.84 91.44 180.61 91.32 180.5 90.98 180.38 90.64"/><polygon class="cls-1" points="182.88 91.89 182.54 92.57 184.12 92.57 184.35 92.11 182.88 91.89"/><polygon class="cls-1" points="214.06 59.91 211.56 64.22 212.13 63.77 212.7 63.43 213.26 63.09 213.94 62.98 215.65 59.91 214.06 59.91"/><polygon class="cls-1" points="199.88 81.8 212.36 60.03 211.45 60.14 210.54 60.25 199.43 79.76 199.66 80.78 199.88 81.8"/><polygon class="cls-1" points="199.32 77.26 208.73 60.82 207.71 61.16 206.69 61.73 199.32 74.31 199.32 75.79 199.32 77.26"/><polygon class="cls-1" points="200.22 69.89 203.85 63.77 203.4 64.22 202.95 64.68 202.49 65.24 202.15 65.81 201.59 66.83 201.02 67.85 200.68 68.87 200.22 69.89"/><path class="cls-1" d="M1283.77-237.22m0,0,8.5-16.89-9,15.76.46,1.13.11.45,7.6-13.15.11-1.13.11-1,.23-.91.23-.91Z" transform="translate(-1082.86 322.08)"/><polygon class="cls-1" points="208.39 75.45 201.81 86.79 202.27 87.47 202.72 88.03 208.39 78.17 208.28 76.81 208.39 75.45"/><polygon class="cls-1" points="209.41 84.75 206.01 90.64 207.14 91.44 209.98 86.45 209.64 85.65 209.41 84.75"/><polygon class="cls-1" points="204.76 89.96 208.96 82.82 208.73 81.8 208.62 80.66 203.74 89.17 203.97 89.39 204.76 89.96"/><polygon class="cls-1" points="210.77 87.92 208.39 92.11 209.07 92.34 209.75 92.57 211.79 89.05 211.34 88.6 210.77 87.92"/><polygon class="cls-1" points="212.92 89.73 211.11 92.91 211.79 93.02 212.58 93.14 214.28 90.19 213.6 89.96 212.92 89.73"/><polygon class="cls-1" points="215.99 90.07 214.17 93.25 214.97 93.25 215.76 93.25 218.37 88.71 217.8 89.17 217.23 89.62 216.67 89.85 215.99 90.07"/><polygon class="cls-1" points="230.05 71.14 217.46 93.14 219.16 92.8 230.39 73.18 230.27 72.16 230.05 71.14"/><polygon class="cls-1" points="230.61 75.79 221.09 92.23 222.22 91.78 223.24 91.32 230.5 78.62 230.61 77.26 230.61 75.79"/><polygon class="cls-1" points="229.71 82.82 226.08 89.05 226.76 88.37 227.32 87.69 227.78 86.9 228.34 86.11 228.68 85.31 229.14 84.52 229.48 83.61 229.71 82.82"/><polygon class="cls-1" points="220.41 68.3 223.92 62.07 223.36 61.73 222.79 61.5 219.84 66.6 220.18 67.4 220.41 68.3"/><polygon class="cls-1" points="216.89 63.31 218.71 60.14 217.91 60.03 217.23 60.03 215.53 62.86 216.21 63.09 216.89 63.31"/><polygon class="cls-1" points="220.18 60.48 218.03 64.11 218.59 64.56 219.05 65.13 221.43 60.93 220.86 60.71 220.18 60.48"/><polygon class="cls-1" points="225.06 62.98 220.97 70.23 221.2 72.39 226.19 63.88 225.62 63.43 225.06 62.98"/><polygon class="cls-1" points="227.1 65.02 221.43 74.88 221.54 77.6 228 66.26 227.55 65.58 227.1 65.02"/><polygon class="cls-1" points="228.8 67.74 221.31 80.89 221.09 81.8 220.97 82.7 220.86 83.5 220.63 84.29 220.41 85.2 229.48 69.33 229.14 68.53 228.8 67.74"/><polygon class="cls-1" points="240.59 63.77 237.08 69.89 236.85 71.03 236.51 72.05 236.39 73.07 236.28 74.2 243.42 61.73 242.63 62.18 241.95 62.63 241.27 63.2 240.59 63.77"/><polygon class="cls-1" points="245.58 60.82 236.05 77.26 236.17 78.39 236.28 79.64 247.39 60.25 246.49 60.48 245.58 60.82"/><polygon class="cls-1" points="249.21 60.03 236.74 81.8 236.96 82.7 237.19 83.61 246.37 67.62 246.71 66.72 247.17 65.81 247.73 65.02 248.3 64.34 250.79 59.91 250 59.91 249.21 60.03"/><polygon class="cls-1" points="245.35 72.16 237.87 85.31 238.66 86.79 245.13 75.33 245.24 73.75 245.35 72.16"/><polygon class="cls-1" points="245.24 78.06 239.57 88.03 240.02 88.6 240.48 89.05 245.35 80.55 245.24 79.3 245.24 78.06"/><polygon class="cls-1" points="245.69 82.82 241.5 90.07 242.06 90.53 242.63 90.87 246.15 84.75 245.92 83.84 245.69 82.82"/><path class="cls-1" d="M1327.87-230m0,0,2.16-5,0,0-.34-.68-3,5.1.57.34.56.23h.12l2.49-4.31-.23-.34-.22-.34-.23-.34Z" transform="translate(-1082.86 322.08)"/><polygon class="cls-1" points="248.53 88.94 246.49 92.57 247.17 92.68 247.85 92.91 249.66 89.73 249.09 89.39 248.53 88.94"/><polygon class="cls-1" points="251.02 90.19 249.32 93.14 250.11 93.25 250.91 93.25 252.61 90.07 251.82 90.19 251.02 90.19"/><polygon class="cls-1" points="254.88 88.94 252.5 93.25 253.29 93.25 254.08 93.14 266.78 71.03 266.56 70.12 266.22 69.21 257.14 85.08 256.8 85.99 256.46 86.9 256.01 87.58 255.56 88.37 254.88 88.94"/><polygon class="cls-1" points="267.24 73.07 255.9 92.8 256.8 92.57 257.82 92.23 267.46 75.45 267.35 74.31 267.24 73.07"/><path class="cls-1" d="M1349.76-241m0,0,.45-2.61-7.37,12.81.68-.34.68-.45.68-.57.68-.68,4-6.8.23-1.36.22-1.36Z" transform="translate(-1082.86 322.08)"/><polygon class="cls-1" points="258.16 80.55 265.53 67.62 265.19 66.83 264.74 66.15 258.28 77.38 258.28 78.96 258.16 80.55"/><polygon class="cls-1" points="258.28 74.77 263.95 65.02 263.49 64.45 262.93 63.88 258.05 72.39 258.16 73.63 258.28 74.77"/><polygon class="cls-1" points="257.71 70.12 261.91 62.98 261.34 62.52 260.77 62.18 257.26 68.19 257.48 69.21 257.71 70.12"/><polygon class="cls-1" points="256.58 66.49 259.53 61.5 258.96 61.16 258.28 60.93 255.9 65.13 256.24 65.7 256.58 66.38 256.58 66.49"/><polygon class="cls-1" points="254.88 63.99 256.92 60.48 256.24 60.25 255.44 60.14 253.74 63.31 254.31 63.66 254.88 63.99"/><polygon class="cls-1" points="252.38 62.86 253.97 59.91 253.86 59.91 252.5 59.91 250.68 62.98 251.59 62.86 252.38 62.86"/><polygon class="cls-1" points="285.26 69.67 276.76 84.41 276.76 87.24 285.26 72.39 285.26 69.67"/><polygon class="cls-1" points="276.76 81.57 285.26 66.72 285.26 64.79 285.26 64.79 285.26 64.79 285.26 64.56 285.38 64.34 285.49 64.11 285.72 63.99 285.94 63.99 286.28 63.88 286.85 63.88 288.78 60.48 287.31 60.48 276.76 78.85 276.76 81.57"/><polygon class="cls-1" points="276.76 76.01 285.6 60.48 284.13 60.48 276.76 73.29 276.76 76.01"/><polygon class="cls-1" points="276.76 70.46 282.43 60.48 280.96 60.48 280.84 60.48 276.76 67.62 276.76 70.46"/><polygon class="cls-1" points="276.65 64.9 279.25 60.48 277.67 60.48 276.65 62.07 276.65 62.3 276.65 64.9"/><polygon class="cls-1" points="275.51 61.39 275.97 60.48 274.38 60.48 274.04 61.05 274.61 61.16 275.06 61.27 275.51 61.39"/><polygon class="cls-1" points="290.48 60.48 288.44 63.88 289.23 63.88 290.03 63.88 291.95 60.48 290.48 60.48"/><polygon class="cls-1" points="293.54 60.71 291.5 64.11 292.18 64.22 292.86 64.56 294.9 60.93 294.22 60.82 293.54 60.71"/><polygon class="cls-1" points="296.38 61.27 294.11 65.24 294.68 65.7 295.13 66.26 297.74 61.73 297.06 61.5 296.38 61.27"/><polygon class="cls-1" points="298.98 62.3 296.04 67.51 296.38 68.3 296.72 69.1 300.23 62.98 298.98 62.3"/><path class="cls-1" d="M1384.57-258m0,0-.34-.34-4.09,7.26.12,1,.22,1,4.77-8.28-.68-.68-.12-.11Z" transform="translate(-1082.86 322.08)"/><polygon class="cls-1" points="303.29 65.92 297.74 75.67 297.74 77.15 297.62 78.51 304.2 67.17 303.75 66.49 303.29 65.92"/><polygon class="cls-1" points="304.88 68.76 297.17 82.25 296.94 83.16 296.83 83.84 296.49 84.52 296.26 85.2 295.81 85.77 295.47 86.45 294.9 87.01 294.45 87.47 293.88 88.03 291.27 92.57 292.07 92.57 292.86 92.45 305.56 70.46 305.22 69.55 304.88 68.76"/><polygon class="cls-1" points="306.01 72.5 294.68 92.23 295.58 92 296.49 91.78 306.24 74.77 306.13 73.63 306.01 72.5"/><polygon class="cls-1" points="306.24 77.72 298.53 90.98 299.21 90.64 299.89 90.3 301.02 89.51 305.79 81.23 305.9 80.32 306.13 79.53 306.24 77.72"/><polygon class="cls-1" points="289.69 92.57 291.73 88.94 290.14 88.94 288.1 92.57 289.69 92.57"/><polygon class="cls-1" points="286.51 92.57 288.55 89.05 286.85 89.05 284.92 92.57 286.51 92.57"/><polygon class="cls-1" points="283.22 92.57 285.38 88.71 285.26 88.49 285.26 88.15 285.26 86.33 281.64 92.57 283.22 92.57"/><polygon class="cls-1" points="280.05 92.57 285.26 83.5 285.26 80.78 278.46 92.57 280.05 92.57"/><polygon class="cls-1" points="276.76 92.57 285.26 77.94 285.26 75.9 285.26 75.11 276.76 89.96 276.76 90.75 276.65 90.87 276.65 91.09 276.42 91.32 276.19 91.55 275.74 91.66 275.29 92.57 276.76 92.57"/></svg>