<?xml version="1.0" standalone="no"?>
<!DOCTYPE svg PUBLIC "-//W3C//DTD SVG 20010904//EN"
 "http://www.w3.org/TR/2001/REC-SVG-20010904/DTD/svg10.dtd">
<svg version="1.0" xmlns="http://www.w3.org/2000/svg"
 width="260.000000pt" height="260.000000pt" viewBox="0 0 260.000000 260.000000"
 preserveAspectRatio="xMidYMid meet">
<metadata>
Created by potrace 1.11, written by Peter Selinger 2001-2013
</metadata>
<g transform="translate(0.000000,260.000000) scale(0.100000,-0.100000)"
fill="#000000" stroke="none">
<path d="M1070 2510 c-150 -31 -174 -39 -189 -57 -13 -17 -13 -17 -7 0 6 19
-5 16 -35 -10 -9 -8 -23 -13 -30 -11 -10 2 -14 -9 -14 -39 -1 -32 2 -40 11
-32 15 12 19 4 23 -39 2 -24 -1 -32 -11 -30 -23 5 -53 -34 -50 -64 3 -22 -1
-28 -17 -28 -11 0 -23 -4 -26 -10 -3 -5 2 -10 11 -10 13 0 15 -3 8 -10 -12
-12 -47 -2 -38 11 3 5 -13 9 -35 9 -22 0 -43 -4 -46 -10 -6 -9 -2 -12 28 -14
22 -2 41 -26 29 -38 -6 -6 -8 -17 -5 -24 3 -8 0 -14 -6 -14 -6 0 -11 5 -11 11
0 6 -8 9 -17 7 -10 -2 -18 -9 -18 -16 0 -15 -26 -33 -38 -25 -4 3 -18 -3 -29
-14 -12 -10 -18 -13 -15 -7 9 15 -24 28 -33 13 -5 -7 -21 -9 -47 -4 -29 4 -43
2 -52 -9 -8 -10 -9 -16 -1 -21 5 -3 13 1 16 9 3 9 14 16 23 16 12 -1 9 -7 -12
-25 -25 -23 -55 -26 -42 -5 6 10 -19 32 -33 28 -5 -2 -10 1 -11 7 -1 5 12 10
28 10 42 0 47 10 12 24 -36 16 -68 1 -77 -34 -3 -13 -12 -29 -20 -36 -10 -8
-11 -16 -3 -30 7 -15 7 -19 -3 -17 -8 2 -12 -4 -10 -14 2 -10 -2 -18 -8 -18
-7 0 -9 -8 -5 -20 5 -16 0 -22 -22 -31 -26 -10 -27 -12 -8 -19 l20 -9 -20 -1
-20 -1 20 -16 c19 -15 19 -15 -8 -9 -16 4 -26 3 -24 -1 3 -4 -11 -9 -31 -10
-33 -2 -35 -1 -19 11 21 16 22 27 1 19 -15 -5 -39 -50 -36 -65 2 -10 -42 -143
-64 -193 -21 -47 -24 -58 -30 -110 -3 -22 -9 -44 -13 -50 -9 -12 -7 -53 8
-150 9 -56 29 -159 36 -185 1 -3 5 -23 10 -45 4 -22 14 -52 22 -68 7 -15 11
-27 7 -27 -4 0 -2 -6 3 -12 5 -7 24 -50 42 -95 30 -75 71 -147 167 -296 42
-65 144 -171 219 -227 28 -20 56 -44 64 -53 7 -10 19 -17 25 -17 7 0 18 -6 25
-12 6 -7 15 -13 19 -13 4 0 25 -13 47 -27 46 -31 211 -96 264 -104 20 -3 39
-8 42 -9 3 -2 28 -7 55 -11 27 -3 57 -11 68 -16 14 -8 17 -7 11 3 -6 8 -4 10
6 3 22 -14 99 -16 99 -3 0 8 4 8 13 2 6 -6 21 -9 32 -6 11 2 45 6 75 9 30 2
62 7 70 11 8 3 35 7 60 7 25 1 50 4 55 7 6 4 24 10 40 14 17 5 35 9 40 11 6 2
21 5 34 8 13 3 34 12 47 21 13 8 24 12 24 9 0 -4 8 0 18 9 9 8 31 19 47 23 41
11 48 11 60 3 23 -17 125 13 125 36 0 5 4 5 8 -2 9 -14 29 -4 34 15 6 24 53
71 62 62 13 -12 45 11 39 28 -5 12 -3 12 16 1 11 -8 21 -17 21 -21 0 -4 7 -5
15 -2 8 4 15 12 15 19 0 7 15 22 33 34 17 11 49 39 69 63 20 24 46 54 57 67
24 28 77 136 87 178 4 15 21 60 39 98 26 58 43 120 69 248 28 137 33 207 22
352 -8 108 -15 145 -26 145 -10 0 -12 -5 -15 -53 -2 -27 -11 -44 -19 -36 -2 2
-7 36 -11 74 -4 39 -11 88 -16 110 -5 22 -12 51 -15 65 -9 46 -16 65 -49 135
-19 39 -43 90 -54 115 -27 59 -90 173 -100 180 -4 3 -12 12 -17 21 -45 81
-205 233 -291 278 -20 10 -23 9 -23 -9 0 -11 -7 -20 -16 -20 -8 0 -12 -4 -9
-10 12 -19 -13 -9 -176 71 -9 4 -36 13 -60 20 -24 7 -48 14 -54 15 -18 5 -89
23 -120 29 -117 25 -328 27 -435 5z m140 -9 c0 -5 -8 -11 -17 -14 -10 -4 -33
-18 -50 -33 l-33 -26 -9 23 c-10 30 -3 52 15 45 8 -3 24 -1 36 4 30 12 58 12
58 1z m-196 -35 c-3 -8 -1 -17 5 -21 14 -8 14 -25 0 -25 -6 0 -17 -7 -25 -15
-21 -21 -46 -19 -42 3 2 11 11 16 27 14 21 -3 23 -1 17 23 -4 14 -4 30 -1 36
9 14 25 1 19 -15z m256 14 c0 -5 -2 -10 -4 -10 -3 0 -8 5 -11 10 -3 6 -1 10 4
10 6 0 11 -4 11 -10z m94 -11 c-3 -6 0 -15 7 -21 11 -7 10 -8 -5 -6 -23 4 -31
38 -10 38 9 0 12 -5 8 -11z m-384 -3 c0 -3 -4 -8 -10 -11 -5 -3 -10 -1 -10 4
0 6 5 11 10 11 6 0 10 -2 10 -4z m430 -12 c0 -8 5 -12 10 -9 6 3 10 4 10 1 0
-16 -21 -13 -30 4 -7 13 -7 20 0 20 5 0 10 -7 10 -16z m89 -16 c10 -26 6 -38
-13 -38 -14 0 -29 38 -20 52 9 15 25 8 33 -14z m115 -22 c-3 -8 -1 -17 5 -21
6 -3 11 -11 11 -17 0 -7 -6 -6 -15 2 -8 7 -15 9 -15 5 0 -4 -7 -2 -15 5 -11 9
-12 15 -2 25 16 19 38 19 31 1z m-176 -25 c32 -31 29 -42 -15 -55 -17 -6 -20
-3 -17 11 3 10 -4 28 -15 40 -26 27 -26 33 -2 33 10 0 32 -13 49 -29z m-393 9
c-3 -5 -10 -10 -16 -10 -5 0 -9 5 -9 10 0 6 7 10 16 10 8 0 12 -4 9 -10z m310
0 c-3 -5 -10 -10 -16 -10 -5 0 -9 5 -9 10 0 6 7 10 16 10 8 0 12 -4 9 -10z
m220 -28 c-8 -8 -25 10 -25 26 0 13 2 13 14 -4 8 -10 13 -21 11 -22z m132 23
c0 -8 -4 -12 -9 -9 -5 3 -6 10 -3 15 9 13 12 11 12 -6z m-467 -15 c-20 -13
-33 -13 -25 0 3 6 14 10 23 10 15 0 15 -2 2 -10z m-135 -9 c3 -5 1 -12 -5 -16
-5 -3 -10 1 -10 9 0 18 6 21 15 7z m245 -16 c-14 -17 -35 -21 -25 -5 3 6 0 10
-7 11 -7 1 -2 4 12 8 31 10 36 6 20 -14z m460 21 c0 -2 -8 -10 -17 -17 -16
-13 -17 -12 -4 4 13 16 21 21 21 13z m197 -41 c1 -1 -7 -9 -18 -19 -13 -11
-19 -13 -17 -4 3 7 1 24 -4 38 l-9 24 23 -19 c13 -11 24 -20 25 -20z m-313 16
c3 -5 -1 -14 -9 -21 -18 -15 -20 -31 -2 -26 6 1 8 1 4 -2 -4 -2 -3 -10 3 -17
8 -9 6 -14 -5 -19 -10 -4 -15 1 -15 14 0 10 -9 22 -20 25 -11 3 -20 11 -20 16
0 5 0 11 0 14 0 3 3 5 8 5 4 0 7 -4 7 -10 0 -5 5 -10 10 -10 6 0 11 5 11 10 1
6 2 15 3 20 1 12 18 13 25 1z m-180 -16 c-4 -8 -10 -15 -15 -15 -5 0 -9 -7 -9
-16 0 -8 -4 -12 -10 -9 -6 4 -4 16 6 31 18 26 37 33 28 9z m350 -26 c-3 -5
-10 -7 -15 -3 -6 3 -13 -3 -16 -14 -5 -22 -53 -28 -65 -8 -5 7 -8 4 -8 -7 0
-10 10 -22 23 -27 12 -5 18 -9 12 -10 -5 -1 -25 -3 -44 -6 -19 -2 -32 -1 -28
2 3 3 2 17 -3 30 -7 16 -6 24 1 24 6 0 8 8 5 18 -5 15 -5 15 6 2 8 -10 26 -15
45 -14 51 3 66 12 60 35 -5 20 -5 20 13 4 11 -10 17 -22 14 -26z m-309 21 c-3
-5 -1 -10 4 -10 6 0 11 6 12 13 0 9 2 9 6 -1 2 -6 9 -10 14 -6 5 3 9 -4 9 -15
0 -17 -3 -19 -17 -12 -10 5 -27 12 -38 16 -16 5 -17 8 -5 15 19 12 23 12 15 0z
m350 -28 c-8 -8 -25 10 -25 26 0 13 2 13 14 -4 8 -10 13 -21 11 -22z m39 17
c-8 -14 -21 -11 -21 5 0 8 6 12 14 9 7 -3 10 -9 7 -14z m86 -4 c-7 -9 -15 -13
-17 -11 -7 7 7 26 19 26 6 0 6 -6 -2 -15z m-673 -21 c-3 -3 -12 -4 -19 -1 -8
3 -5 6 6 6 11 1 17 -2 13 -5z m183 -19 c-7 -9 -15 -13 -17 -11 -7 7 7 26 19
26 6 0 6 -6 -2 -15z m497 -2 c-9 -9 -19 -14 -23 -11 -10 10 6 28 24 28 15 0
15 -1 -1 -17z m-153 -14 c-6 -11 -24 -2 -24 11 0 5 7 7 15 4 8 -4 12 -10 9
-15z m-240 -7 c3 -4 -8 -9 -24 -10 -16 -1 -31 1 -33 5 -3 5 8 9 24 10 15 1 30
-1 33 -5z m421 -3 c4 -6 13 -8 21 -5 11 4 11 0 -2 -19 -20 -31 -45 -36 -66
-12 -10 11 -24 17 -33 13 -8 -3 -15 -1 -15 4 0 6 3 10 8 11 22 2 56 10 61 14
8 8 19 6 26 -6z m-492 -13 c3 -8 0 -17 -7 -19 -10 -4 -12 1 -9 14 6 23 9 24
16 5z m114 -11 c-4 -8 -11 -15 -17 -15 -7 0 -7 6 0 21 13 23 26 19 17 -6z
m227 4 c-8 -14 -21 -11 -21 5 0 8 6 12 14 9 7 -3 10 -9 7 -14z m19 -39 c3 -11
1 -20 -4 -20 -5 0 -9 2 -9 4 0 2 -3 11 -6 20 -3 9 -2 16 4 16 5 0 12 -9 15
-20z m-250 -5 c-3 -9 -8 -14 -10 -11 -3 3 -2 9 2 15 9 16 15 13 8 -4z m47 -15
c0 -5 -5 -10 -11 -10 -5 0 -7 5 -4 10 3 6 8 10 11 10 2 0 4 -4 4 -10z m174
-11 c-3 -5 -14 -9 -26 -9 -17 0 -18 3 -8 14 12 15 44 10 34 -5z m93 14 c-4 -3
-2 -12 3 -18 7 -9 6 -14 -4 -18 -18 -7 -31 24 -14 35 16 9 24 10 15 1z m112
-4 c6 9 10 8 15 -5 4 -11 2 -20 -4 -22 -6 -2 -17 -19 -25 -38 -9 -21 -21 -34
-32 -34 -16 1 -16 2 -3 13 31 26 38 50 21 77 -15 24 -15 24 2 11 15 -12 20
-12 26 -2z m51 -3 c0 -3 -4 -8 -10 -11 -5 -3 -10 -1 -10 4 0 6 5 11 10 11 6 0
10 -2 10 -4z m-195 -16 c3 -5 1 -10 -4 -10 -6 0 -11 5 -11 10 0 6 2 10 4 10 3
0 8 -4 11 -10z m205 -15 c-7 -8 -17 -15 -23 -15 -6 0 -2 7 9 15 25 19 30 19
14 0z m46 -48 c-2 -7 -5 -4 -5 6 -1 11 -9 17 -23 18 -22 0 -22 1 -3 8 22 9 40
-10 31 -32z m-156 24 c0 -5 -7 -14 -15 -21 -16 -14 -18 -10 -9 14 6 17 24 22
24 7z m87 -23 c13 -26 18 -29 21 -15 3 14 7 16 18 6 16 -13 19 -33 4 -24 -6 4
-17 1 -25 -5 -12 -10 -15 -9 -15 3 0 9 -6 20 -12 24 -12 7 -21 43 -12 43 2 0
11 -15 21 -32z m98 -18 c3 -5 -1 -10 -10 -10 -9 0 -13 5 -10 10 3 6 8 10 10
10 2 0 7 -4 10 -10z m-1611 -16 c22 -8 20 -19 -4 -21 -11 -1 -20 4 -20 13 0
16 2 16 24 8z m-44 -23 c0 -6 -4 -13 -10 -16 -5 -3 -10 1 -10 9 0 9 5 16 10
16 6 0 10 -4 10 -9z m1430 -11 c0 -5 -5 -10 -11 -10 -5 0 -7 5 -4 10 3 6 8 10
11 10 2 0 4 -4 4 -10z m197 -26 c15 -4 28 -2 33 6 9 15 50 -7 50 -27 0 -18
-17 -16 -24 3 -5 14 -9 13 -24 -6 l-19 -23 -21 23 c-22 23 -22 23 -36 4 -13
-17 -13 -20 2 -25 14 -5 14 -6 -1 -12 -24 -9 -31 10 -13 38 9 13 17 32 17 42
1 17 2 17 6 1 2 -10 16 -21 30 -24z m-78 7 c9 -16 8 -18 -9 -14 -21 5 -25 15
-13 26 9 10 11 9 22 -12z m-1569 -1 c8 -5 11 -10 5 -10 -5 0 -17 5 -25 10 -8
5 -10 10 -5 10 6 0 17 -5 25 -10z m-210 -40 c6 -11 8 -20 6 -20 -3 0 -10 9
-16 20 -6 11 -8 20 -6 20 3 0 10 -9 16 -20z m77 -5 c-10 -7 -17 -17 -17 -24 0
-6 -4 -11 -10 -11 -10 0 -2 29 14 46 6 7 15 9 20 6 5 -3 2 -10 -7 -17z m233
-34 c0 -4 -10 -7 -22 -7 -16 1 -23 -4 -22 -16 1 -10 -2 -18 -7 -18 -12 0 -11
27 1 35 6 4 8 10 5 14 -2 5 7 6 20 3 14 -2 25 -8 25 -11z m1560 9 c0 -5 -5
-10 -11 -10 -5 0 -7 5 -4 10 3 6 8 10 11 10 2 0 4 -4 4 -10z m-1766 -30 c8 0
16 -6 19 -14 7 -18 -18 -42 -27 -27 -4 6 -13 8 -21 5 -7 -3 -22 -1 -32 6 -17
10 -17 11 2 6 11 -3 27 -1 35 4 10 6 11 10 3 10 -7 0 -13 10 -13 23 1 20 2 20
11 5 5 -10 16 -18 23 -18z m86 20 c0 -5 -4 -10 -9 -10 -6 0 -13 5 -16 10 -3 6
1 10 9 10 9 0 16 -4 16 -10z m1650 -11 c0 -6 -4 -7 -10 -4 -5 3 -10 11 -10 16
0 6 5 7 10 4 6 -3 10 -11 10 -16z m-1820 7 c0 -3 -4 -8 -10 -11 -5 -3 -10 -1
-10 4 0 6 5 11 10 11 6 0 10 -2 10 -4z m290 -36 c0 -5 -7 -7 -15 -4 -8 4 -15
8 -15 10 0 2 7 4 15 4 8 0 15 -4 15 -10z m-360 -35 c0 -7 5 -16 10 -18 6 -3 5
-4 -1 -3 -7 1 -16 12 -20 25 -6 14 -5 20 1 16 6 -3 10 -12 10 -20z m295 -15
c3 -5 -1 -10 -10 -10 -9 0 -13 5 -10 10 3 6 8 10 10 10 2 0 7 -4 10 -10z
m-315 -10 c0 -5 -5 -10 -11 -10 -5 0 -7 5 -4 10 3 6 8 10 11 10 2 0 4 -4 4
-10z m473 -13 c4 -10 -2 -13 -20 -9 -18 3 -21 7 -11 13 18 12 25 11 31 -4z
m-593 -4 c0 -5 -7 -16 -14 -26 -13 -16 -14 -16 -20 -1 -4 10 -1 21 6 26 16 10
28 10 28 1z m555 -23 c-3 -5 -10 -10 -16 -10 -5 0 -9 5 -9 10 0 6 7 10 16 10
8 0 12 -4 9 -10z m-42 -13 c7 3 9 2 4 -2 -4 -5 -19 -9 -33 -10 -23 -1 -24 0
-7 12 11 9 19 10 21 3 2 -5 9 -7 15 -3z m95 4 c10 -6 9 -10 -7 -14 -14 -3 -21
0 -21 9 0 16 9 18 28 5z m-581 -7 c-3 -3 -12 -4 -19 -1 -8 3 -5 6 6 6 11 1 17
-2 13 -5z m423 -11 c0 -11 -48 -32 -55 -25 -4 4 27 23 53 31 1 1 2 -2 2 -6z
m-470 -27 c0 -3 -4 -8 -10 -11 -5 -3 -10 -1 -10 4 0 6 5 11 10 11 6 0 10 -2
10 -4z m536 -24 c-4 -3 -14 2 -24 12 -16 18 -16 18 6 6 13 -6 21 -14 18 -18z
m-556 -17 c11 -13 10 -14 -4 -9 -9 3 -16 10 -16 15 0 13 6 11 20 -6z m2300 -5
c0 -5 -4 -10 -10 -10 -5 0 -10 5 -10 10 0 6 5 10 10 10 6 0 10 -4 10 -10z
m-2240 -14 c0 -2 -7 -7 -16 -10 -8 -3 -12 -2 -9 4 6 10 25 14 25 6z m-51 -27
c12 -12 20 -24 16 -27 -3 -4 -10 0 -14 7 -11 17 -34 4 -27 -15 4 -12 2 -12
-14 -4 -16 8 -18 15 -10 29 5 10 6 21 3 25 -17 17 26 3 46 -15z m458 15 c-3
-3 -12 -4 -19 -1 -8 3 -5 6 6 6 11 1 17 -2 13 -5z m38 -74 c3 -6 -1 -7 -9 -4
-18 7 -21 14 -7 14 6 0 13 -4 16 -10z m-475 -15 c0 -9 -7 -18 -16 -22 -15 -6
-15 -8 2 -20 17 -12 17 -13 -2 -14 -19 0 -19 -1 1 -8 19 -8 19 -8 -3 -20 -18
-10 -22 -9 -22 3 0 7 -6 16 -13 19 -16 6 -52 -19 -39 -27 17 -10 1 -56 -19
-56 -25 0 -24 8 3 31 13 10 18 18 12 19 -18 0 -25 29 -13 52 7 13 17 18 29 15
21 -5 44 15 32 29 -4 4 1 2 11 -5 15 -12 21 -9 18 12 0 4 4 7 9 7 6 0 10 -7
10 -15z m730 -70 c10 -12 10 -15 -4 -15 -9 0 -16 7 -16 15 0 8 2 15 4 15 2 0
9 -7 16 -15z m140 -2 c0 -9 -3 -13 -7 -10 -3 4 -18 0 -32 -9 -22 -13 -21 -11
4 10 36 31 35 31 35 9z m27 -69 c-9 -9 -28 6 -21 18 4 6 10 6 17 -1 6 -6 8
-13 4 -17z m-922 -7 c3 -4 2 -5 -2 -2 -3 3 -11 -6 -18 -18 -11 -21 -14 -43
-17 -119 -1 -16 -7 -28 -14 -28 -20 0 -25 32 -8 51 19 21 9 43 -17 36 -11 -3
-19 -2 -19 3 0 13 26 30 34 22 4 -4 4 6 0 22 -4 19 -2 31 7 37 15 9 45 7 54
-4z m965 -17 c-8 -5 -19 -10 -25 -10 -5 0 -3 5 5 10 8 5 20 10 25 10 6 0 3 -5
-5 -10z m-950 -10 c0 -5 -5 -10 -11 -10 -5 0 -7 5 -4 10 3 6 8 10 11 10 2 0 4
-4 4 -10z m945 -41 c-10 -15 -25 -10 -19 6 4 8 10 12 15 9 5 -3 7 -10 4 -15z
m35 11 c0 -5 -2 -10 -4 -10 -3 0 -8 5 -11 10 -3 6 -1 10 4 10 6 0 11 -4 11
-10z m30 -24 c0 -2 -7 -6 -15 -10 -8 -3 -15 -1 -15 4 0 6 7 10 15 10 8 0 15
-2 15 -4z m-54 -68 c0 -27 -9 -21 -27 17 l-16 33 22 -16 c11 -8 21 -24 21 -34z
m-948 -20 c-6 -18 -25 -20 -31 -3 -5 10 0 15 14 15 12 0 19 -5 17 -12z m-25
-65 c-6 -15 -23 -17 -23 -3 0 6 5 10 12 10 9 0 9 3 0 12 -7 7 -12 16 -12 22 0
5 6 1 14 -9 8 -11 12 -25 9 -32z m-20 -30 c-7 -2 -19 -2 -25 0 -7 3 -2 5 12 5
14 0 19 -2 13 -5z m-13 -23 c0 -5 -4 -10 -9 -10 -6 0 -13 5 -16 10 -3 6 1 10
9 10 9 0 16 -4 16 -10z m2345 -319 c3 -5 1 -12 -5 -16 -5 -3 -10 1 -10 9 0 18
6 21 15 7z m-213 -383 c-7 -7 -12 -8 -12 -2 0 14 12 26 19 19 2 -3 -1 -11 -7
-17z"/>
</g>
</svg>
