<?xml version="1.0" standalone="no"?>
<!DOCTYPE svg PUBLIC "-//W3C//DTD SVG 20010904//EN"
 "http://www.w3.org/TR/2001/REC-SVG-20010904/DTD/svg10.dtd">
<svg version="1.0" xmlns="http://www.w3.org/2000/svg"
 width="260.000000pt" height="260.000000pt" viewBox="0 0 260.000000 260.000000"
 preserveAspectRatio="xMidYMid meet">
<metadata>
Created by potrace 1.11, written by Peter Selinger 2001-2013
</metadata>
<g transform="translate(0.000000,260.000000) scale(0.100000,-0.100000)"
fill="#000000" stroke="none">
<path d="M1025 2296 c-194 -41 -352 -120 -477 -239 -35 -33 -41 -35 -70 -25
-78 24 -188 27 -239 5 -102 -42 -177 -162 -197 -312 -8 -63 -7 -239 2 -285 25
-126 69 -228 111 -256 38 -25 88 -19 168 19 88 42 170 103 262 195 108 109
169 224 178 337 6 70 -41 177 -91 207 l-23 14 33 33 c125 125 307 175 502 136
108 -22 203 -55 276 -98 64 -37 214 -183 256 -247 99 -156 181 -198 251 -130
90 88 51 291 -80 423 -88 88 -244 181 -337 202 -8 2 -44 11 -80 20 -38 9 -122
18 -200 20 -113 3 -153 0 -245 -19z"/>
<path d="M1108 1973 c-1 -33 -2 -36 -12 -85 -4 -21 -11 -38 -16 -38 -5 0 -14
-16 -19 -36 -12 -42 -69 -121 -93 -129 -10 -4 -18 -13 -18 -21 0 -16 -66 -113
-90 -131 -8 -6 -15 -22 -15 -35 0 -13 -4 -48 -9 -78 -16 -114 44 -224 153
-280 23 -11 41 -25 41 -30 0 -18 -96 -103 -157 -138 -61 -35 -80 -63 -49 -75
29 -11 188 84 224 135 13 18 34 25 30 11 -5 -17 13 -114 27 -147 34 -82 116
-143 196 -148 30 -1 56 -11 79 -29 49 -37 109 -66 153 -74 60 -11 46 17 -25
54 -35 18 -72 39 -83 47 -19 14 -18 15 17 47 66 59 85 144 50 220 -9 20 -47
68 -85 106 l-67 68 31 39 c110 138 127 342 43 521 -46 97 -183 218 -281 248
-20 5 -23 3 -25 -22z"/>
<path d="M1990 1583 c-24 -20 -65 -93 -152 -272 -66 -136 -126 -258 -134 -273
-8 -16 -12 -28 -8 -28 3 0 1 -6 -6 -14 -19 -24 -39 -114 -34 -158 5 -59 33
-108 81 -144 l42 -32 -28 -39 c-132 -180 -392 -225 -677 -118 -93 35 -171 85
-242 155 -79 78 -129 155 -192 300 -57 130 -94 175 -150 185 -48 8 -91 -21
-121 -82 -35 -71 -33 -202 5 -294 57 -139 215 -292 391 -379 142 -71 267 -101
430 -105 296 -8 510 85 676 294 35 44 35 44 95 42 35 -1 74 4 96 13 34 15 108
76 108 90 0 4 8 15 18 26 26 28 132 209 190 327 70 140 180 396 185 430 6 43
-9 64 -44 61 -49 -4 -61 -24 -259 -443 -39 -81 -86 -150 -94 -136 -3 5 29 82
73 172 105 221 169 381 154 386 -7 2 -10 10 -7 18 8 19 -26 24 -57 9 -32 -16
-65 -76 -208 -374 -74 -154 -100 -198 -101 -168 0 19 8 39 62 156 21 46 38 86
38 88 0 2 14 32 31 66 73 150 93 224 65 247 -16 14 -56 0 -56 -20 0 -6 -4 -8
-10 -4 -5 3 -52 -83 -105 -192 -124 -256 -139 -286 -153 -291 -14 -4 -11 24 6
54 6 12 32 70 57 130 25 60 59 141 76 179 33 77 42 125 28 146 -5 8 -9 10 -9
5 0 -5 -6 -3 -14 3 -11 9 -21 6 -46 -16z"/>
</g>
</svg>
